<?xml version="1.0" encoding="utf-8"?><!-- Uploaded to: SVG Repo, www.svgrepo.com, Generator: SVG Repo Mixer Tools -->
<svg fill="#000000" width="800px" height="800px" viewBox="0 -0.5 46 46" xmlns="http://www.w3.org/2000/svg">
  <path id="_33.Thumbs-Up" data-name="33.Thumbs-Up" d="M45.037,28.426a3.951,3.951,0,0,1-1,6,3.952,3.952,0,0,1-1,6A3.979,3.979,0,0,1,40,47L16.6,47v-.024A5.46,5.46,0,0,1,12.621,45H6c-2.762,0-5-5.373-5-12S3.238,21,6,21h8.387L22,10V5c.541-3.262,3-3,3-3a3.8,3.8,0,0,1,3,1c3,3,3,8,3,8,0,6.608-3,10-3,10H43a3.99,3.99,0,0,1,2.037,7.426ZM6,23c-.771,0-3,3.438-3,10S5.229,43,6,43h5.578a5.216,5.216,0,0,1-.152-.6A62.482,62.482,0,0,1,10,31a13.4,13.4,0,0,1,3-8H6Zm37,0H23.561L26.5,19.675c.025-.029,2.5-2.984,2.5-8.669,0-.042-.054-4.232-2.414-6.591l-.117-.105A2.807,2.807,0,0,0,24.87,4c-.533,0-.77.686-.87,1.185v5.444L14.621,24.168l-.109.152A11.226,11.226,0,0,0,12,31a62,62,0,0,0,1.4,11.073,3.5,3.5,0,0,0,3.285,2.9L40,45a1.98,1.98,0,0,0,1.513-3.281l-1.529-1.8,2.028-1.211a1.953,1.953,0,0,0,.5-2.989l-1.528-1.8,2.03-1.209a1.952,1.952,0,0,0,.5-2.986l-1.529-1.8,2.028-1.211A1.98,1.98,0,0,0,45,25,2,2,0,0,0,43,23ZM7.5,41A1.5,1.5,0,1,1,9,39.5,1.5,1.5,0,0,1,7.5,41Z" transform="translate(-1 -1.995)" fill-rule="evenodd"/>
</svg>